HIERARCHY
ROOT reference
{
  OFFSET 0 0 0
  CHANNELS 6 Xposition Yposition Zposition Zrotation Xrotation Yrotation
  JOINT Hips
  {
    OFFSET -10.8081 68.5747 53.1438
    CHANNELS 6 Xposition Yposition Zposition Zrotation Xrotation Yrotation
    JOINT Spine
    {
      OFFSET 0 7.88368 0
      CHANNELS 6 Xposition Yposition Zposition Zrotation Xrotation Yrotation
      JOINT Spine1
      {
        OFFSET 0 24.7763 0
        CHANNELS 6 Xposition Yposition Zposition Zrotation Xrotation Yrotation
        JOINT Neck
        {
          OFFSET 0 24.6746 2.24314
          CHANNELS 6 Xposition Yposition Zposition Zrotation Xrotation Yrotation
          JOINT Head
          {
            OFFSET 0 13.4599 -1.92285
            CHANNELS 6 Xposition Yposition Zposition Zrotation Xrotation Yrotation
            End Site
            {
              OFFSET 0 24.0356 0
            }
          }
        }
        JOINT LeftShoulder
        {
          OFFSET 3.81022 22.3233 -0.325006
          CHANNELS 6 Xposition Yposition Zposition Zrotation Xrotation Yrotation
          JOINT LeftArm
          {
            OFFSET 12.5606 0 0
            CHANNELS 6 Xposition Yposition Zposition Zrotation Xrotation Yrotation
            JOINT LeftForeArm
            {
              OFFSET 28.8068 0 0
              CHANNELS 6 Xposition Yposition Zposition Zrotation Xrotation Yrotation
              JOINT LeftHand
              {
                OFFSET 23.8139 0 0
                CHANNELS 6 Xposition Yposition Zposition Zrotation Xrotation Yrotation
                End Site
                {
                  OFFSET 14.4214 0 0
                }
              }
            }
          }
        }
        JOINT RightShoulder
        {
          OFFSET -3.82306 22.3233 -0.325006
          CHANNELS 6 Xposition Yposition Zposition Zrotation Xrotation Yrotation
          JOINT RightArm
          {
            OFFSET -12.5606 0 0
            CHANNELS 6 Xposition Yposition Zposition Zrotation Xrotation Yrotation
            JOINT RightForeArm
            {
              OFFSET -28.8068 0 0
              CHANNELS 6 Xposition Yposition Zposition Zrotation Xrotation Yrotation
              JOINT RightHand
              {
                OFFSET -23.8139 0 0
                CHANNELS 6 Xposition Yposition Zposition Zrotation Xrotation Yrotation
                End Site
                {
                  OFFSET -14.4214 0 0
                }
              }
            }
          }
        }
      }
    }
    JOINT LeftUpLeg
    {
      OFFSET 9.61425 0 0
      CHANNELS 6 Xposition Yposition Zposition Zrotation Xrotation Yrotation
      JOINT LeftLeg
      {
        OFFSET 0 -41.4642 0
        CHANNELS 6 Xposition Yposition Zposition Zrotation Xrotation Yrotation
        JOINT LeftFoot
        {
          OFFSET 0 -34.276 0
          CHANNELS 6 Xposition Yposition Zposition Zrotation Xrotation Yrotation
          JOINT LeftToeBase
          {
            OFFSET 0 -6.24926 14.4214
            CHANNELS 6 Xposition Yposition Zposition Zrotation Xrotation Yrotation
            End Site
            {
              OFFSET 0 0 3.8457
            }
          }
        }
      }
    }
    JOINT RightUpLeg
    {
      OFFSET -9.61425 0 0
      CHANNELS 6 Xposition Yposition Zposition Zrotation Xrotation Yrotation
      JOINT RightLeg
      {
        OFFSET 0 -41.4642 0
        CHANNELS 6 Xposition Yposition Zposition Zrotation Xrotation Yrotation
        JOINT RightFoot
        {
          OFFSET 0 -34.276 0
          CHANNELS 6 Xposition Yposition Zposition Zrotation Xrotation Yrotation
          JOINT RightToeBase
          {
            OFFSET 0 -6.24926 14.4214
            CHANNELS 6 Xposition Yposition Zposition Zrotation Xrotation Yrotation
            End Site
            {
              OFFSET 0 0 3.8457
            }
          }
        }
      }
    }
  }
}
MOTION
Frames:	9
Frame Time:	0.004
0 0 0 0 0 -0 -19.9848 80.3762 -199.613 0.178776 -2.55742 3.08535 -1.77636e-015 7.88368 0 -0.0593988 0.435213 -0.317775 -1.77636e-015 24.7763 -2.84217e-014 0.498168 -5.04392 -0.296179 3.55271e-015 24.6746 2.24314 6.03708 12.5779 -1.7016 0 13.4599 -1.92285 -0.44855 2.99033 -2.03157 3.81022 22.3233 -0.325006 15.8188 2.16124 6.74108 12.5606 2.84217e-014 0 -17.4976 -4.02635 -3.47015 28.8068 0 0 2.98147 -0.548813 -2.24866 23.8139 0 -2.84217e-014 -1.50633 -0.435865 -4.14823 -3.82306 22.3233 -0.325006 -15.5869 -1.87011 11.4252 -12.5606 0 0 11.4565 -3.14012 -2.12821 -28.8068 0 -2.84217e-014 -2.41018 -2.26561 5.55792 -23.8139 2.84217e-014 2.84217e-014 -3.03955 -2.22811 2.9944 9.61425 0 -2.84217e-014 1.65138 9.36469 2.68823 0 -41.4642 -2.84217e-014 -8.57982 -5.08444 0.720157 1.77636e-015 -34.276 0 6.88265 -1.94716 16.5678 -1.42109e-014 -6.24926 14.4214 -6.21202e-017 -1.2424e-016 -0 -9.61425 0 -2.84217e-014 -0.999242 8.99914 -2.46994 0 -41.4642 0 4.59551 -9.01723 -1.97628 0 -34.276 0 -4.70098 1.19038 -8.59921 -1.42109e-014 -6.24926 14.4214 1.49089e-016 0 3.18055e-015 
0 0 0 0 0 -0 -19.9848 80.3762 -199.613 0.178776 -2.55742 3.08535 -1.77636e-015 7.88368 0 -0.0593988 0.435213 -0.317775 -1.77636e-015 24.7763 -2.84217e-014 0.498168 -5.04392 -0.296179 3.55271e-015 24.6746 2.24314 6.04858 12.5581 -1.70147 0 13.4599 -1.92285 -0.469009 3.00355 -2.03159 3.81022 22.3233 -0.325006 15.8187 2.15942 6.7474 12.5606 2.84217e-014 0 -17.4936 -4.01248 -3.4609 28.8068 2.84217e-014 0 2.98125 -0.555665 -2.24338 23.8139 2.84217e-014 0 -1.54442 -0.441558 -4.14815 -3.82306 22.3233 -0.325006 -15.6008 -1.87011 11.4252 -12.5606 0 0 11.4556 -3.13753 -2.14601 -28.8068 -5.68434e-014 0 -2.4081 -2.26093 5.56565 -23.8139 -2.84217e-014 0 -3.04574 -2.22299 2.9745 9.61425 0 -2.84217e-014 1.65138 9.36469 2.68823 0 -41.4642 -2.84217e-014 -8.57883 -5.07192 0.733213 1.77636e-015 -34.276 0 6.88623 -1.96286 16.5702 -1.42109e-014 -6.24926 14.4214 1.61513e-016 -7.45443e-017 -0 -9.61425 0 -2.84217e-014 -0.998913 9.01049 -2.46895 3.55271e-015 -41.4642 0 4.59551 -9.01723 -1.97628 0 -34.276 -2.84217e-014 -4.70098 1.19038 -8.59921 0 -6.24926 14.4214 -2.98177e-016 -3.97569e-016 -1.59028e-015 
0 0 0 0 0 -0 -19.9876 80.3762 -199.613 0.178776 -2.55742 3.08535 -1.77636e-015 7.88368 2.84217e-014 -0.0593988 0.435213 -0.317775 -1.77636e-015 24.7763 -2.84217e-014 0.498168 -5.04392 -0.296179 3.55271e-015 24.6746 2.24314 6.03099 12.542 -1.70136 1.77636e-015 13.4599 -1.92285 -0.429047 3.03035 -2.03164 3.81022 22.3233 -0.325006 15.8164 2.17572 6.75769 12.5606 -2.84217e-014 0 -17.4855 -4.05455 -3.46659 28.8068 0 2.84217e-014 2.98217 -0.534093 -2.23507 23.8139 -2.84217e-014 2.84217e-014 -1.61711 -0.417175 -4.16162 -3.82306 22.3233 -0.325006 -15.5902 -1.87011 11.4252 -12.5606 0 0 11.4556 -3.12735 -2.15316 -28.8068 0 0 -2.23677 -2.28866 5.60484 -23.8139 2.84217e-014 0 -4.13719 -2.28012 2.79445 9.61425 0 0 1.65146 9.36303 2.68822 0 -41.4642 0 -8.57868 -5.07377 0.734536 -7.10543e-015 -34.276 0 6.90035 -1.96338 16.5484 -1.42109e-014 -6.24926 14.4214 -6.21202e-017 -7.45443e-017 3.18055e-015 -9.61425 0 0 -1.00255 9.00819 -2.44637 0 -41.4642 -2.84217e-014 4.59524 -9.01722 -1.97798 -7.10543e-015 -34.276 0 -4.70085 1.19036 -8.60561 1.42109e-014 -6.24926 14.4214 9.93923e-017 1.98785e-016 1.59028e-015 
0 0 0 0 0 -0 -19.9891 80.3762 -199.613 0.179095 -2.56652 3.08157 1.77636e-015 7.88368 -2.84217e-014 -0.0632145 0.435213 -0.317775 -3.55271e-015 24.7763 0 0.498185 -5.04065 -0.296177 -5.32907e-015 24.6746 2.24314 6.03684 12.5381 -1.70938 1.77636e-015 13.4599 -1.92285 -0.43381 3.02202 -2.041 3.81022 22.3233 -0.325006 15.8155 2.17571 6.75522 12.5606 0 0 -17.4815 -4.04426 -3.46413 28.8068 2.84217e-014 2.84217e-014 2.98148 -0.546634 -2.23037 23.8139 0 0 -1.63359 -0.429712 -4.13679 -3.82306 22.3233 -0.325006 -15.5859 -1.87018 11.4149 -12.5606 0 0 11.4553 -3.13049 -2.15694 -28.8068 2.84217e-014 0 -2.23633 -2.28321 5.61035 -23.8139 0 0 -4.13014 -2.2737 2.77513 9.61425 0 -2.84217e-014 1.65095 9.37388 2.68827 0 -41.4642 0 -8.57955 -5.06952 0.725356 3.55271e-015 -34.276 0 6.88155 -1.95804 16.5733 0 -6.24926 14.4214 -1.2424e-017 -2.48481e-017 -0 -9.61425 1.42109e-014 0 -1.00114 9.02028 -2.45179 3.55271e-015 -41.4642 0 4.59082 -9.01707 -2.00619 0 -34.276 -2.84217e-014 -4.69987 1.20011 -8.58267 -1.42109e-014 -6.24926 14.4214 -4.47266e-016 -5.96354e-016 -6.36111e-015 
0 0 0 0 0 -0 -19.9905 80.3762 -199.613 0.178836 -2.56965 3.07206 0 7.88368 0 -0.0663574 0.435213 -0.317775 0 24.7763 2.84217e-014 0.498199 -5.03793 -0.296176 -1.77636e-015 24.6746 2.24314 6.0503 12.5252 -1.71147 8.88178e-016 13.4599 -1.92285 -0.446841 3.03628 -2.04584 3.81022 22.3233 -0.325006 15.8144 2.17598 6.75784 12.5606 2.84217e-014 0 -17.4714 -4.01421 -3.4495 28.8068 -2.84217e-014 -2.84217e-014 2.96177 -0.569232 -2.24092 23.8139 0 2.84217e-014 -1.5568 -0.455096 -4.14798 -3.82306 22.3233 -0.325006 -15.5859 -1.87032 11.4138 -12.5606 2.84217e-014 0 11.4583 -3.12024 -2.15999 -28.8068 5.68434e-014 0 -2.24085 -2.28929 5.61501 -23.8139 -2.84217e-014 2.84217e-014 -4.06735 -2.27419 2.66835 9.61425 0 0 1.65224 9.3826 2.67792 1.77636e-015 -41.4642 2.84217e-014 -8.57597 -5.07524 0.765009 1.77636e-015 -34.276 0 7.00098 -1.85364 16.5228 1.42109e-014 -6.24926 14.4214 -1.42876e-016 1.2424e-017 -0 -9.61425 0 0 -0.998442 9.02349 -2.46762 0 -41.4642 0 4.59774 -9.0081 -1.96405 0 -34.276 0 -4.70261 1.18209 -8.58168 0 -6.24926 14.4214 2.48481e-016 1.98785e-016 1.59028e-015 
0 0 0 0 0 -0 -19.9918 80.3762 -199.613 0.178612 -2.56976 3.06694 0 7.88368 -2.84217e-014 -0.0675082 0.425631 -0.317775 0 24.7763 0 0.508012 -5.0361 -0.296175 0 24.6746 2.24314 6.0451 12.5232 -1.71576 8.88178e-016 13.4599 -1.92285 -0.441125 3.02669 -2.04971 3.81022 22.3233 -0.325006 15.8131 2.1762 6.76744 12.5606 0 -2.84217e-014 -17.4657 -4.05844 -3.46809 28.8068 -2.84217e-014 -2.84217e-014 2.96414 -0.544421 -2.20788 23.8139 0 -2.84217e-014 -1.60104 -0.428925 -4.17817 -3.82306 22.3233 -0.325006 -15.586 -1.87051 11.412 -12.5606 2.84217e-014 -2.84217e-014 11.4595 -3.1253 -2.16293 -28.8068 0 0 -2.41653 -2.25067 5.57858 -23.8139 0 0 -2.9307 -2.20589 2.85117 9.61425 0 0 1.65267 9.36922 2.67904 0 -41.4642 0 -8.57702 -5.0566 0.755888 0 -34.276 0 6.83321 -1.98292 16.5801 1.42109e-014 -6.24926 14.4214 -1.2424e-017 -2.48481e-017 3.18055e-015 -9.61425 -1.42109e-014 0 -1.00084 9.02258 -2.45234 -3.55271e-015 -41.4642 0 4.59305 -9.01063 -1.99339 0 -34.276 -2.84217e-014 -4.70934 1.17956 -8.55368 0 -6.24926 14.4214 -3.97569e-016 3.97569e-016 -0 
0 0 0 0 0 -0 -19.9931 80.3762 -199.613 0.178472 -2.56943 3.06421 -3.55271e-015 7.88368 0 -0.0679403 0.433953 -0.317775 -1.77636e-015 24.7763 0 0.503671 -5.03441 -0.296174 0 24.6746 2.24314 6.04835 12.5193 -1.72013 0 13.4599 -1.92285 -0.432099 3.02734 -2.05327 3.81022 22.3233 -0.325006 15.8123 2.17649 6.76223 12.5606 2.84217e-014 2.84217e-014 -17.467 -4.00916 -3.44494 28.8068 0 2.84217e-014 2.97408 -0.567 -2.227 23.8139 2.84217e-014 -2.84217e-014 -1.61903 -0.450438 -4.1624 -3.82306 22.3233 -0.325006 -15.5822 -1.87073 11.4099 -12.5606 0 0 11.4649 -2.9297 -2.1878 -28.8068 0 -2.84217e-014 -2.44826 -2.34698 5.61585 -23.8139 0 0 -2.9267 -2.29898 2.8202 9.61425 1.42109e-014 0 1.65236 9.37686 2.67879 1.77636e-015 -41.4642 0 -8.57769 -5.05605 0.74843 1.77636e-015 -34.276 0 6.83811 -1.98477 16.593 0 -6.24926 14.4214 -4.96962e-017 4.96962e-017 -3.18055e-015 -9.61425 0 0 -1.00098 9.02092 -2.4523 0 -41.4642 0 4.59876 -9.01233 -1.95663 0 -34.276 0 -4.71787 1.17486 -8.59649 0 -6.24926 14.4214 1.49089e-016 1.98785e-016 -0 
0 0 0 0 0 -0 -19.9943 80.3762 -199.612 0.178347 -2.56898 3.06198 0 7.88368 0 -0.0686634 0.433882 -0.317775 0 24.7763 0 0.494684 -5.03284 -0.296174 -1.77636e-015 24.6746 2.24314 6.05233 12.5041 -1.72274 -8.88178e-016 13.4599 -1.92285 -0.424275 3.0377 -2.05608 3.81022 22.3233 -0.325006 15.8112 2.17679 6.76293 12.5606 0 2.84217e-014 -17.4576 -4.03007 -3.44699 28.8068 0 2.84217e-014 2.96687 -0.554538 -2.22076 23.8139 -2.84217e-014 2.84217e-014 -1.64758 -0.437235 -4.16447 -3.82306 22.3233 -0.325006 -15.5703 -1.87099 11.4075 -12.5606 2.84217e-014 2.84217e-014 11.454 -2.92217 -2.19099 -28.8068 -2.84217e-014 0 -2.44804 -2.35027 5.61341 -23.8139 2.84217e-014 -2.84217e-014 -2.89311 -2.30139 2.81516 9.61425 0 2.84217e-014 1.65407 9.37508 2.6688 -3.55271e-015 -41.4642 0 -8.57704 -5.05763 0.755489 1.77636e-015 -34.276 0 6.87088 -1.98319 16.5896 0 -6.24926 14.4214 -6.21202e-017 4.96962e-017 -3.18055e-015 -9.61425 -1.42109e-014 -2.84217e-014 -0.999935 9.01906 -2.46026 -3.55271e-015 -41.4642 -2.84217e-014 4.5949 -9.01235 -1.98121 0 -34.276 0 -4.68915 1.18451 -8.58051 0 -6.24926 14.4214 -1.98785e-016 -1.98785e-016 -0 
0 0 0 0 0 -0 -19.9949 80.3762 -199.612 0.178248 -2.56874 3.06005 1.77636e-015 7.88368 0 -0.0694149 0.437261 -0.317775 -5.32907e-015 24.7763 -2.84217e-014 0.494037 -5.03137 -0.296173 -1.77636e-015 24.6746 2.24314 6.05515 12.5079 -1.72711 -1.77636e-015 13.4599 -1.92285 -0.436216 3.02001 -2.06315 3.81022 22.3233 -0.325006 15.8101 2.17713 6.7639 12.5606 -2.84217e-014 0 -17.462 -4.02827 -3.44151 28.8068 0 0 2.97795 -0.557379 -2.21299 23.8139 0 2.84217e-014 -1.64 -0.447375 -4.17967 -3.82306 22.3233 -0.325006 -15.5723 -1.87126 11.4052 -12.5606 0 0 11.4519 -2.93614 -2.20054 -28.8068 0 -2.84217e-014 -2.44713 -2.35302 5.61295 -23.8139 -2.84217e-014 2.84217e-014 -2.87837 -2.30357 2.81952 9.61425 -1.42109e-014 0 1.65316 9.37151 2.67541 -3.55271e-015 -41.4642 0 -8.57717 -5.04545 0.755887 -5.32907e-015 -34.276 0 6.88271 -1.98996 16.5772 0 -6.24926 14.4214 -1.61513e-016 -2.48481e-017 -9.54166e-015 -9.61425 0 0 -0.99945 9.01756 -2.4646 0 -41.4642 0 4.59587 -9.00697 -1.97619 7.10543e-015 -34.276 0 -4.71828 1.18708 -8.55493 1.42109e-014 -6.24926 14.4214 3.47873e-016 0 -1.59028e-015 
